# xmcd
#
# Track frame offsets:
#	150
#	13812
#	21605
#	35689
#	41127
#	54105
#	66525
#	89212
#	106144
#	118084
#	137041
#	156636
#	171394
#	183569
#	191795
#	202464
#	212834
#	224959
#	238459
#	260785
#	276012
#	285155
#	296226
#	316006
#	340682
#
# Disc length: 4560 seconds
#
# Revision: 1
# Processed by: cddbd v1.5.2PL0 Copyright (c) Steve Scherf et al.
# Submitted via: audiograbber 1.83.01
#
DISCID=b011ce19
DTITLE=Ennio Morricone - The Ultimate CD
DYEAR=2010
DGENRE=
TTITLE0=For a Fistful Dollars (Main Titlles)
TTITLE1=Quasi Morto
TTITLE2=La Resa dei Conti
TTITLE3=Carillon
TTITLE4=For a Few Dollars More (End Titles)
TTITLE5=The Good, The Bad and The Ugly
TTITLE6=Triello (End Titles)
TTITLE7=Once Upon a Time in The West (Titles)
TTITLE8=Addio a Cheyenne
TTITLE9=Once Upon a Time in The West (Finale)
TTITLE10=Giù la Testa
TTITLE11=My Name is Nobody
TTITLE12=Mucchio Selvaggio
TTITLE13=La Favola dell´Uccellino
TTITLE14=Una Pistola per Ringo
TTITLE15=Il Ritorno di Ringo
TTITLE16=I Crudeli
TTITLE17=Un Esercito di 5 Uomini
TTITLE18=Duello ne Texas (Suite)
TTITLE19=Banda J and S Cronaca Criminale del Far West
TTITLE20=7 Pistole per i McGregor
TTITLE21=Vamos a Matar Companeros
TTITLE22=Tepepa (Vivala Revolucion)
TTITLE23=Navajo Joe
TTITLE24=Daten-CD
EXTD=
EXTT0=
EXTT1=
EXTT2=
EXTT3=
EXTT4=
EXTT5=
EXTT6=
EXTT7=
EXTT8=
EXTT9=
EXTT10=
EXTT11=
EXTT12=
EXTT13=
EXTT14=
EXTT15=
EXTT16=
EXTT17=
EXTT18=
EXTT19=
EXTT20=
EXTT21=
EXTT22=
EXTT23=
EXTT24=
PLAYORDER=
